<?xml version="1.0" encoding="utf-8"?>
<!-- Generator: Adobe Illustrator 24.1.0, SVG Export Plug-In . SVG Version: 6.00 Build 0)  -->
<svg version="1.1" id="Layer_1" xmlns="http://www.w3.org/2000/svg" xmlns:xlink="http://www.w3.org/1999/xlink" x="0px" y="0px"
	 viewBox="0 0 112 129" style="enable-background:new 0 0 112 129;" xml:space="preserve">
<style type="text/css">
	.st0{fill:#E30032;}
	.st1{fill:#EE6C72;}
	.st2{fill:#FFFFFF;}
</style>
<g id="Grupo_47" transform="translate(-92.847 -402.05)">
	<g id="Grupo_44" transform="translate(92.847 406.83)">
		<path id="Trazado_40" class="st0" d="M52.3,53.9c0-4.96-1.34-9.83-3.87-14.1c-2.41-4.04-5.94-7.28-10.17-9.35
			c-4.32-2.1-9.16-2.9-13.93-2.31c-2.73,0.29-5.4,0.97-7.94,2.02l2.12-14.23l31.26-3.49l-0.2-12.51L8.67,4.5L2.81,43.18l9.81,4.33
			l0.33-0.4c1.46-1.8,3.26-3.31,5.28-4.43c1.98-1.09,4.17-1.78,6.42-2.03c2.76-0.35,5.56,0.07,8.09,1.22
			c2.4,1.1,4.41,2.89,5.77,5.15c1.44,2.44,2.19,5.22,2.18,8.06c0.06,2.99-0.6,5.95-1.94,8.62c-2.65,5.32-7.81,8.93-13.72,9.59
			c-2.95,0.38-5.94-0.14-8.59-1.49c-2.55-1.31-4.59-3.42-5.82-6.01l-0.34-0.7L0,71.87l0.26,0.54C2.42,77,6.02,80.75,10.51,83.1
			c3.6,1.9,7.61,2.88,11.68,2.85c6.09-0.01,12.02-1.96,16.92-5.57C47.54,74.22,52.46,64.35,52.3,53.9"/>
		<path id="Trazado_41" class="st0" d="M101.25,58.28c2.04,3.65,3.12,7.77,3.13,11.95c0.1,4.97-1.11,9.88-3.52,14.23
			c-2.41,4.4-5.85,8.16-10.02,10.96c-4.22,2.88-9.1,4.67-14.18,5.21c-4.86,0.63-9.8-0.07-14.29-2.03c-4.21-1.83-7.8-4.85-10.32-8.69
			c-2.59-3.99-3.96-8.65-3.94-13.4c-0.08-4.36,0.86-8.68,2.75-12.61c1.9-3.98,4.62-7.52,7.99-10.37c-2.42-1.91-4.37-4.34-5.71-7.11
			c-1.39-2.92-2.12-6.12-2.12-9.36c-0.09-4.35,0.98-8.65,3.09-12.46c2.12-3.88,5.13-7.19,8.79-9.66c3.68-2.53,7.94-4.11,12.38-4.58
			c4.25-0.55,8.56,0.08,12.48,1.8c3.7,1.62,6.84,4.28,9.06,7.66c2.27,3.49,3.47,7.57,3.46,11.73c0.07,3.36-0.56,6.69-1.83,9.8
			c-1.28,3.11-3.14,5.94-5.47,8.36C96.41,51.82,99.26,54.77,101.25,58.28 M85.09,85.61c2.49-1.56,4.58-3.69,6.07-6.22
			c1.44-2.39,2.18-5.14,2.14-7.93c0-2.64-0.83-5.22-2.38-7.36c-1.58-2.15-3.75-3.81-6.24-4.78c-2.76-1.08-5.74-1.44-8.68-1.06
			c-3.06,0.32-6.01,1.34-8.61,2.99c-2.48,1.54-4.56,3.65-6.07,6.15c-1.45,2.37-2.19,5.1-2.14,7.87c0,2.66,0.83,5.26,2.38,7.42
			c1.57,2.18,3.74,3.87,6.24,4.84c2.76,1.08,5.74,1.44,8.68,1.06C79.54,88.29,82.48,87.26,85.09,85.61 M66.16,43.87
			c2.78,2.03,6.25,2.87,9.66,2.36c3.61-0.35,6.99-1.94,9.55-4.51c2.48-2.3,3.87-5.54,3.82-8.92c0.03-3.18-1.49-6.19-4.09-8.03
			c-2.79-2.02-6.25-2.87-9.66-2.36c-3.61,0.35-6.99,1.94-9.55,4.51c-2.48,2.3-3.87,5.54-3.82,8.92
			C62.04,39.02,63.57,42.02,66.16,43.87"/>
	</g>
	<g id="Grupo_45" transform="translate(94.052 402.05)">
		<path id="Trazado_42" class="st1" d="M22.99,91.37c-4.17,0.02-8.28-0.98-11.97-2.92C6.4,86.03,2.71,82.17,0.49,77.46l-0.5-1.04
			l11.34-7.49l0.66,1.35c1.17,2.47,3.12,4.48,5.54,5.73c2.54,1.29,5.41,1.79,8.23,1.42c5.69-0.63,10.67-4.12,13.22-9.25
			c1.29-2.58,1.93-5.44,1.87-8.33c0.01-2.72-0.71-5.39-2.08-7.74c-1.29-2.15-3.2-3.86-5.48-4.91c-2.43-1.1-5.11-1.5-7.76-1.16
			c-2.17,0.24-4.27,0.91-6.18,1.96c-1.96,1.09-3.69,2.54-5.1,4.28l-0.63,0.77L2.9,48.34L8.91,8.7L51,3.99l0.21,13.79l-31.35,3.51
			l-1.88,12.66c2.28-0.84,4.66-1.39,7.07-1.66c4.89-0.61,9.85,0.21,14.28,2.37c4.33,2.12,7.95,5.45,10.42,9.59
			c2.59,4.36,3.96,9.34,3.97,14.42c0.16,10.65-4.85,20.73-13.45,27.01C35.26,89.36,29.2,91.35,22.99,91.37 M1.61,76.87l0.02,0.04
			c2.1,4.47,5.6,8.12,9.98,10.41c4.45,2.32,9.5,3.22,14.47,2.6c4.87-0.55,9.51-2.36,13.46-5.27c8.26-6.05,13.08-15.73,12.93-25.97
			c0-4.85-1.31-9.61-3.78-13.78c-2.35-3.93-5.79-7.09-9.9-9.1c-4.21-2.05-8.93-2.83-13.57-2.25c-2.67,0.29-5.28,0.95-7.76,1.97
			l-1.04,0.43l2.35-15.83l31.18-3.48L49.76,5.41L10.03,9.86L4.31,47.58l8.93,3.94l0.02-0.03c1.51-1.86,3.37-3.42,5.47-4.59
			c2.06-1.13,4.32-1.85,6.66-2.11c2.87-0.37,5.79,0.07,8.43,1.27c2.51,1.15,4.61,3.03,6.03,5.4c1.5,2.54,2.28,5.43,2.27,8.38
			c0.07,3.09-0.62,6.15-2,8.91c-2.74,5.51-8.1,9.26-14.22,9.94c-3.07,0.4-6.19-0.15-8.96-1.55c-2.67-1.37-4.81-3.59-6.1-6.3
			l-0.02-0.05L1.61,76.87z"/>
		<path id="Trazado_43" class="st1" d="M74.01,106.05c-3.8,0.03-7.57-0.75-11.05-2.29c-4.32-1.89-8-4.98-10.59-8.92
			c-2.65-4.09-4.06-8.86-4.05-13.74c-0.08-4.46,0.88-8.87,2.81-12.89c1.83-3.83,4.41-7.26,7.58-10.08c-2.22-1.89-4.03-4.22-5.3-6.85
			c-1.43-3.01-2.18-6.3-2.19-9.63c-0.08-4.46,1.01-8.87,3.17-12.78c2.17-3.96,5.25-7.35,8.99-9.88c3.77-2.59,8.12-4.2,12.67-4.69
			c4.36-0.55,8.79,0.09,12.81,1.86c3.8,1.68,7.04,4.42,9.33,7.89c2.33,3.59,3.57,7.79,3.57,12.07c0.07,3.44-0.57,6.86-1.88,10.05
			c-1.21,2.94-2.93,5.65-5.08,8c3.25,2.12,5.94,4.99,7.85,8.36c2.09,3.75,3.2,7.97,3.21,12.26c0.1,5.08-1.14,10.1-3.59,14.55
			c-2.47,4.49-5.97,8.32-10.22,11.18c-4.31,2.94-9.28,4.76-14.47,5.32C76.4,105.99,75.21,106.05,74.01,106.05 M79.14,15.41
			c-5.36,0.01-10.6,1.63-15.04,4.64c-3.57,2.42-6.52,5.65-8.59,9.44c-2.05,3.72-3.09,7.91-3.01,12.15c0.01,3.15,0.72,6.25,2.07,9.09
			c1.3,2.69,3.2,5.04,5.54,6.89l0.6,0.48l-0.59,0.5c-3.3,2.8-5.96,6.26-7.83,10.16c-1.84,3.84-2.76,8.07-2.69,12.33
			c-0.01,4.63,1.32,9.17,3.84,13.06c2.46,3.73,5.95,6.67,10.05,8.46c4.39,1.91,9.22,2.59,13.97,1.98c4.98-0.54,9.75-2.29,13.9-5.11
			c4.08-2.75,7.45-6.43,9.81-10.74c2.35-4.26,3.54-9.06,3.44-13.92c-0.01-4.08-1.06-8.09-3.04-11.65c-1.94-3.41-4.71-6.28-8.06-8.32
			l-0.67-0.41l0.54-0.57c2.28-2.36,4.09-5.13,5.35-8.17c1.24-3.03,1.84-6.28,1.78-9.55c0-4.04-1.16-8-3.36-11.39
			c-2.15-3.27-5.21-5.85-8.79-7.43C85.44,16.04,82.31,15.39,79.14,15.41 M75.02,93.95c-2.26,0.02-4.51-0.4-6.61-1.24
			c-2.62-1.02-4.88-2.78-6.52-5.06c-1.62-2.27-2.49-4.99-2.5-7.78c-0.04-2.89,0.73-5.73,2.23-8.2c1.56-2.58,3.72-4.76,6.28-6.36
			c2.68-1.7,5.72-2.76,8.88-3.09c3.04-0.39,6.13-0.01,8.98,1.1c2.6,1.01,4.86,2.74,6.52,4.99c1.62,2.25,2.5,4.95,2.5,7.72
			c0.04,2.91-0.73,5.77-2.23,8.26c-1.55,2.61-3.7,4.82-6.28,6.43l0,0c-2.68,1.7-5.72,2.75-8.88,3.09
			C76.61,93.91,75.82,93.96,75.02,93.95 M79.17,63.36c-0.75,0-1.49,0.04-2.24,0.13c-2.97,0.31-5.82,1.3-8.34,2.9
			c-2.4,1.49-4.41,3.53-5.87,5.94c-1.38,2.27-2.09,4.88-2.05,7.53c0.01,2.53,0.8,5,2.26,7.06c1.5,2.08,3.57,3.69,5.96,4.62
			c2.66,1.04,5.54,1.39,8.37,1.02c2.97-0.31,5.82-1.3,8.34-2.9c2.41-1.5,4.42-3.56,5.87-6c1.38-2.29,2.09-4.92,2.05-7.6
			c0-2.51-0.79-4.96-2.26-7c-1.52-2.06-3.59-3.64-5.97-4.56C83.35,63.73,81.27,63.34,79.17,63.36 M74.77,51.57
			c-2.92,0.06-5.78-0.86-8.13-2.6c-2.75-1.96-4.37-5.15-4.34-8.53c-0.04-3.55,1.41-6.95,4.01-9.38c2.67-2.67,6.18-4.33,9.93-4.69
			c3.56-0.52,7.19,0.37,10.11,2.49c2.75,1.97,4.37,5.15,4.34,8.53c0.04,3.55-1.42,6.96-4.01,9.38c-2.67,2.67-6.18,4.33-9.93,4.69
			C76.09,51.53,75.43,51.57,74.77,51.57 M78.2,27.52c-0.61,0-1.22,0.04-1.82,0.1c-3.47,0.34-6.71,1.87-9.18,4.33
			c-2.35,2.18-3.67,5.25-3.64,8.46c-0.05,2.99,1.39,5.81,3.84,7.53c2.66,1.92,5.96,2.73,9.21,2.24c3.47-0.34,6.71-1.87,9.17-4.33
			c2.35-2.18,3.67-5.25,3.64-8.46c0.04-2.99-1.39-5.81-3.84-7.53C83.45,28.3,80.85,27.47,78.2,27.52"/>
		<path id="Trazado_44" class="st1" d="M54.81,118.53c1.61-0.26,3.23-0.42,4.86-0.48c1.47-0.07,3.18-0.09,5.02,0.01
			c0.92,0.04,1.87,0.13,2.83,0.23c0.96,0.1,1.94,0.24,2.91,0.42c0.48,0.09,0.97,0.18,1.45,0.29c0.48,0.11,0.96,0.22,1.43,0.34
			c0.94,0.24,1.86,0.52,2.74,0.82c0.88,0.3,1.71,0.63,2.49,0.97c0.78,0.34,1.51,0.69,2.16,1.06c0.66,0.34,1.24,0.72,1.76,1.03
			c0.51,0.34,0.94,0.64,1.3,0.89l1.09,0.84c0.28,0.21,0.34,0.61,0.13,0.89c-0.21,0.28-0.61,0.34-0.89,0.13
			c-0.01,0-0.01-0.01-0.02-0.01l-0.02-0.01l-0.03-0.02l-1.01-0.84c-0.33-0.25-0.74-0.56-1.21-0.9c-0.49-0.32-1.02-0.7-1.65-1.06
			c-0.61-0.38-1.31-0.74-2.04-1.11s-1.54-0.71-2.38-1.04s-1.73-0.64-2.64-0.91c-0.46-0.14-0.92-0.27-1.38-0.39
			c-0.47-0.12-0.94-0.23-1.41-0.34c-0.95-0.21-1.9-0.38-2.85-0.53c-0.95-0.15-1.88-0.26-2.79-0.34c-1.66-0.15-3.32-0.23-4.99-0.21
			C58.05,118.24,56.42,118.34,54.81,118.53"/>
		<path id="Trazado_45" class="st1" d="M59.57,17.95c0,0,0.57-0.51,1.65-1.33c0.54-0.4,1.2-0.89,1.99-1.4
			c0.79-0.51,1.69-1.07,2.7-1.64c1.01-0.57,2.14-1.14,3.35-1.67c1.28-0.57,2.59-1.06,3.93-1.46c1.44-0.45,2.9-0.78,4.39-1.01
			c0.76-0.1,1.53-0.21,2.32-0.24c0.39-0.02,0.78-0.06,1.17-0.06l1.18,0.01c0.39-0.01,0.79,0.04,1.18,0.07s0.79,0.05,1.18,0.1
			l1.16,0.18l0.58,0.09l0.57,0.14L88.06,10c0.38,0.08,0.73,0.23,1.1,0.34l1.08,0.36l1.03,0.44c0.34,0.15,0.69,0.28,1.01,0.45
			l0.96,0.51c0.31,0.17,0.63,0.33,0.93,0.51s0.58,0.38,0.87,0.56c0.29,0.18,0.57,0.37,0.85,0.55c0.28,0.18,0.52,0.39,0.79,0.58
			c0.5,0.39,1.01,0.75,1.46,1.14c0.88,0.8,1.72,1.5,2.36,2.21c0.66,0.7,1.27,1.29,1.69,1.83l1.39,1.66
			c0.37,0.46,0.29,1.12-0.16,1.49c-0.44,0.36-1.09,0.3-1.46-0.13l-0.03-0.03l-0.04-0.06l-1.26-1.64c-0.38-0.54-0.93-1.12-1.53-1.81
			c-0.58-0.71-1.35-1.4-2.15-2.19c-0.4-0.39-0.87-0.74-1.33-1.14c-0.23-0.19-0.46-0.4-0.71-0.58c-0.25-0.18-0.51-0.36-0.77-0.55
			l-0.8-0.57c-0.27-0.18-0.57-0.34-0.86-0.51l-0.89-0.52c-0.3-0.17-0.62-0.31-0.93-0.46l-0.95-0.46l-1-0.39
			c-0.34-0.12-0.67-0.28-1.02-0.37l-1.06-0.31l-0.53-0.15l-0.55-0.11l-1.1-0.23c-0.37-0.06-0.74-0.1-1.12-0.15s-0.74-0.11-1.12-0.11
			l-1.13-0.06c-0.38-0.02-0.75,0.01-1.13,0.01c-0.75-0.01-1.5,0.08-2.25,0.14c-1.46,0.16-2.9,0.43-4.32,0.8
			c-1.33,0.35-2.64,0.77-3.92,1.28c-1.23,0.48-2.36,1-3.39,1.51c-1.03,0.52-1.95,1.03-2.75,1.52c-0.8,0.49-1.49,0.93-2.05,1.31
			C60.17,17.47,59.57,17.96,59.57,17.95"/>
		<path id="Trazado_46" class="st1" d="M36.78,90.73c-0.43,0.31-0.87,0.59-1.33,0.85c-1.21,0.69-2.46,1.3-3.76,1.8
			c-0.8,0.32-1.69,0.63-2.64,0.91c-0.95,0.28-1.97,0.53-3.03,0.76c-1.07,0.2-2.17,0.39-3.31,0.51c-1.13,0.13-2.3,0.19-3.46,0.22
			c-0.58,0-1.16,0-1.74-0.01c-0.58-0.03-1.16-0.04-1.73-0.09c-0.57-0.05-1.14-0.09-1.7-0.15c-0.56-0.07-1.11-0.13-1.65-0.21
			l-1.59-0.27l-1.51-0.32c-0.49-0.09-0.96-0.23-1.42-0.34c-0.46-0.11-0.9-0.22-1.32-0.35c-0.84-0.25-1.61-0.47-2.28-0.71
			c-0.67-0.24-1.26-0.42-1.74-0.61l-1.5-0.58c-0.54-0.22-0.8-0.85-0.57-1.39c0.22-0.52,0.8-0.78,1.33-0.59l0.05,0.02l0.04,0.02
			l1.41,0.64c0.45,0.21,1,0.43,1.64,0.69c0.64,0.26,1.36,0.53,2.16,0.81c0.39,0.15,0.82,0.28,1.25,0.41
			c0.43,0.14,0.89,0.3,1.35,0.41l1.44,0.39l1.52,0.34c0.52,0.11,1.05,0.2,1.58,0.3s1.08,0.16,1.63,0.24
			c0.55,0.08,1.11,0.12,1.67,0.18c0.56,0.04,1.13,0.08,1.69,0.11c1.13,0.03,2.26,0.05,3.38-0.02c1.12-0.04,2.21-0.17,3.27-0.31
			c1.05-0.16,2.07-0.34,3.02-0.57c0.95-0.24,1.84-0.48,2.66-0.75c1.31-0.43,2.59-0.95,3.83-1.57C35.88,91.26,36.34,91,36.78,90.73"
			/>
		<path id="Trazado_47" class="st1" d="M84.02,109.46c0,0,0.65-0.24,1.73-0.76c1.49-0.72,2.94-1.53,4.33-2.42
			c0.87-0.55,1.79-1.17,2.73-1.88c0.94-0.7,1.9-1.49,2.87-2.32c0.95-0.86,1.92-1.75,2.82-2.74c0.93-0.97,1.79-2.02,2.63-3.08
			c0.81-1.07,1.57-2.19,2.27-3.34c0.34-0.57,0.69-1.13,0.98-1.71l0.45-0.86c0.15-0.28,0.27-0.58,0.41-0.86
			c0.14-0.28,0.26-0.57,0.39-0.85c0.13-0.28,0.23-0.57,0.35-0.85c0.23-0.56,0.46-1.11,0.63-1.66c0.17-0.55,0.39-1.07,0.53-1.6
			l0.43-1.51c0.13-0.49,0.22-0.96,0.32-1.41s0.2-0.87,0.26-1.28c0.12-0.81,0.27-1.5,0.32-2.09c0.13-1.17,0.2-1.83,0.2-1.83
			l0.01-0.06c0.05-0.58,0.55-1.02,1.14-0.97c0.58,0.05,1.02,0.55,0.97,1.14c0,0.02,0,0.05-0.01,0.07l-0.01,0.05l-0.3,1.91
			c-0.08,0.61-0.27,1.34-0.44,2.18c-0.08,0.42-0.21,0.86-0.34,1.32c-0.13,0.46-0.25,0.95-0.41,1.46l-0.52,1.56
			c-0.18,0.54-0.42,1.08-0.63,1.64s-0.48,1.12-0.74,1.7c-0.14,0.29-0.26,0.58-0.41,0.87l-0.46,0.86c-0.16,0.29-0.3,0.59-0.47,0.87
			s-0.34,0.57-0.51,0.86c-0.33,0.59-0.72,1.15-1.1,1.72c-0.78,1.15-1.61,2.26-2.5,3.32c-0.91,1.05-1.85,2.08-2.84,3.02
			c-0.97,0.96-2,1.83-3,2.65c-1.02,0.8-2.02,1.55-3.02,2.2s-1.94,1.25-2.84,1.76c-1.44,0.83-2.94,1.57-4.47,2.22
			C84.67,109.25,84.01,109.46,84.02,109.46"/>
		<path id="Trazado_48" class="st1" d="M21.29,23.34l27.54-4.08c0.58-0.09,1.12,0.31,1.2,0.89c0.09,0.58-0.31,1.12-0.89,1.2
			c-0.03,0-0.05,0.01-0.08,0.01L21.29,23.34z"/>
		<path id="Trazado_49" class="st1" d="M7.06,6.22l49.05-6.21c0.58-0.09,1.12,0.31,1.21,0.88c0.09,0.58-0.31,1.12-0.88,1.21
			c-0.02,0-0.04,0.01-0.06,0.01h-0.05L7.06,6.22z"/>
		<path id="Trazado_50" class="st1" d="M35.64,61.79c0,0,0.01-0.07,0.03-0.19c0.02-0.12,0.05-0.33,0.08-0.58
			c0.07-0.71,0.11-1.43,0.1-2.14c-0.01-1.02-0.12-2.03-0.32-3.03c-0.12-0.56-0.27-1.11-0.46-1.65c-0.2-0.56-0.44-1.09-0.73-1.61
			c-0.29-0.52-0.62-1.01-1-1.46c-0.38-0.44-0.79-0.84-1.24-1.2c-0.21-0.18-0.44-0.34-0.68-0.49c-0.22-0.15-0.45-0.29-0.69-0.41
			c-0.44-0.23-0.89-0.44-1.35-0.61c-0.44-0.13-0.84-0.3-1.21-0.36c-0.37-0.07-0.69-0.18-0.96-0.21l-0.85-0.13l0.86,0.04
			c0.28,0,0.6,0.06,0.98,0.11c0.38,0.04,0.8,0.15,1.27,0.24c0.5,0.13,0.98,0.29,1.46,0.49c0.26,0.1,0.52,0.22,0.77,0.35
			c0.27,0.13,0.52,0.28,0.77,0.44c0.53,0.34,1.03,0.72,1.48,1.15c0.47,0.45,0.89,0.95,1.27,1.49c0.38,0.53,0.71,1.1,0.99,1.69
			c0.27,0.57,0.5,1.16,0.7,1.76c0.34,1.07,0.57,2.16,0.7,3.28c0.09,0.79,0.14,1.58,0.14,2.37c0,0.3-0.01,0.52-0.02,0.68
			c-0.01,0.16-0.02,0.26-0.02,0.26c-0.04,0.58-0.54,1.03-1.13,0.99c-0.58-0.04-1.02-0.54-0.99-1.13c0-0.03,0.01-0.07,0.01-0.1
			L35.64,61.79z"/>
	</g>
	<g id="Grupo_46" transform="translate(102.418 489.116)">
		<path id="Trazado_51" class="st2" d="M82.95,10.87c-0.79,0.77-1.66,1.48-2.49,2.23c-0.24-0.59-0.63-1.11-1.13-1.5
			c-0.66-0.53-1.29-1.1-1.9-1.71L77.4,9.87c-0.26-0.21-0.54-0.45-0.82-0.71c-0.19-0.15-0.34-0.35-0.44-0.57
			c-0.04-0.17-0.06-0.35-0.04-0.53c0.08-0.19,0.19-0.36,0.33-0.51c0.24-0.3,0.6-0.74,1.07-1.32c0.48-0.58,1.15-1.46,1.98-2.63
			c0.81-0.9,1.33-2.02,1.5-3.22c0-0.34,0.02-1.38-0.71-1.66c-0.42-0.19-0.9-0.18-1.31,0.03c-0.43,0.2-0.83,0.46-1.18,0.77
			c-0.38,0.34-0.75,0.7-1.08,1.08C76.35,1,76.03,1.38,75.76,1.72c-0.73,0.9-1.37,1.87-1.94,2.88c-0.48,0.88-1.02,1.72-1.62,2.52
			c-0.57,0.68-1.07,1.28-1.48,1.8c-0.39,0.49-0.8,0.97-1.21,1.43c-0.41,0.46-0.89,0.95-1.4,1.46l-0.59,0.58
			c-0.44,0.39-1.03,0.93-1.78,1.62c-0.86,0.79-1.77,1.54-2.69,2.24c-0.26,0.2-0.56,0.34-0.88,0.44c-0.08,0.02-0.23,0.04-0.3-0.01
			c-0.1-0.1-0.17-0.23-0.19-0.36c-0.06-0.23-0.1-0.46-0.12-0.69c0.95-1.09,1.78-2.27,2.47-3.54c0.55-0.93,1.04-1.89,1.47-2.89
			c0.4-0.88,0.67-1.81,0.8-2.76c0.13-0.77-0.01-1.55-0.39-2.23c-0.52-0.7-1.35-1.1-2.23-1.07h-0.01c-1.02-0.03-2.03,0.14-2.97,0.51
			c-1.1,0.42-2.16,0.96-3.14,1.61c-1.11,0.73-2.15,1.54-3.13,2.43c-1.02,0.92-1.97,1.92-2.85,2.98c-1.01,1.22-1.92,2.52-2.74,3.88
			c-0.25,0.42-0.48,0.83-0.69,1.24c-0.39,0.36-0.97,0.87-1.74,1.52c-0.93,0.79-1.87,1.59-2.82,2.42c-0.95,0.82-1.81,1.54-2.55,2.14
			c-0.36,0.31-0.74,0.6-1.14,0.86l-0.09,0.04c-0.08,0.05-0.17,0.09-0.26,0.12c0.09-0.81,0.32-1.59,0.69-2.31
			c0.46-1,1.01-2.07,1.64-3.2c0.63-1.13,1.29-2.29,1.95-3.47c0.61-1.08,1.14-2.2,1.58-3.36l0.02-0.06c0.21-0.72,0.18-1.5-0.08-2.2
			c-0.23-0.52-0.7-0.89-1.26-0.99c-0.58-0.08-1.18,0.01-1.72,0.23c-0.65,0.25-1.27,0.6-1.82,1.03c-0.98,0.8-1.9,1.68-2.75,2.61
			c-1.04,1.11-2.14,2.33-3.26,3.61s-2.2,2.54-3.22,3.77c-0.36,0.43-0.69,0.83-1.01,1.21c0.08-0.21,0.15-0.41,0.22-0.61
			c0.31-0.87,0.61-1.71,0.91-2.52c0.3-0.81,0.61-1.65,0.94-2.54c0.32-0.87,0.71-1.85,1.15-2.92l0.37-1.05
			c0.12-0.34,0.21-0.68,0.28-1.03c0.14-0.44,0-0.93-0.36-1.23c-0.33-0.25-0.75-0.35-1.16-0.28c-0.47,0.08-0.92,0.27-1.3,0.56
			c-0.47,0.35-0.87,0.79-1.17,1.3c-0.91,1.3-2.15,2.99-3.68,5.02c-1.94,2.46-4.1,4.74-6.45,6.8l-0.22,0.2l0,0.01
			c-0.11,0.1-0.23,0.2-0.35,0.3c-0.72,0.6-1.46,1.23-2.24,1.9c-0.78,0.66-1.53,1.3-2.24,1.92c-0.71,0.62-1.28,1.11-1.69,1.48
			c-0.2,0.17-0.41,0.32-0.64,0.44c0-0.39,0.06-0.78,0.2-1.15c0.26-0.84,0.58-1.66,0.95-2.47c0.35-0.8,0.75-1.58,1.2-2.34
			c0.52-0.69,1-1.36,1.42-1.99c0.43-0.63,0.84-1.2,1.26-1.73c0,0-2.29-1.49-4.51,1.32c-0.43,0.54-0.84,1.16-1.32,1.8
			c-0.48,0.64-1,1.31-1.54,1.99c-0.54,0.67-1.1,1.34-1.65,1.95c-0.55,0.61-1.13,1.22-1.73,1.82c-0.6,0.6-1.15,1.1-1.66,1.53
			c-0.41,0.36-0.87,0.67-1.37,0.91c-0.21,0.1-0.49,0.19-0.67,0.07c-0.27-0.18-0.32-0.59-0.14-1.23c0.25-0.89,0.59-1.75,1.03-2.57
			c0.46-0.89,0.96-1.76,1.52-2.6c0.53-0.8,0.91-1.34,1.1-1.58c0.62-0.7,1.22-1.36,1.8-1.99c0.57-0.62,1.19-1.23,1.86-1.83
			c0.44-0.39,0.89-0.77,1.34-1.1c0.45-0.33,0.95-0.69,1.48-1.04c0.55-0.41,1.18-0.71,1.84-0.88c0.27-0.05,0.62-0.07,0.79,0.09
			c0.17,0.18,0.21,0.46,0.08,0.68c-1.23,2.44,1.9,1.63,2.3,1.49l0.11-0.04l0.07-0.09c0.37-0.45,0.67-0.94,0.92-1.47
			c0.22-0.45,0.35-0.94,0.39-1.45c0.03-0.43-0.05-0.86-0.24-1.25c-0.19-0.39-0.53-0.69-0.94-0.82h0c-1.06-0.32-2.2-0.35-3.27-0.07
			c-1.24,0.3-2.42,0.79-3.52,1.45c-1.25,0.75-2.42,1.61-3.51,2.57c-1.16,1.02-2.24,2.12-3.25,3.3c-1.01,1.22-1.92,2.52-2.73,3.88
			c-0.74,1.22-1.36,2.5-1.84,3.84c-0.41,1.07-0.61,2.21-0.61,3.36c-0.03,0.94,0.36,1.84,1.06,2.47c0.42,0.33,0.94,0.51,1.47,0.5
			c0.2,0,0.4-0.02,0.59-0.06c0.75-0.16,1.48-0.43,2.15-0.82c0.68-0.38,1.32-0.81,1.93-1.29c0.57-0.46,1-0.83,1.26-1.07
			c0.34-0.3,0.66-0.62,0.96-0.96c0.02-0.03,0.05-0.05,0.07-0.08c-0.01,0.15-0.03,0.3-0.03,0.45c-0.05,0.52,0.03,1.05,0.23,1.54
			c0.21,0.47,0.65,0.79,1.16,0.85c0.68,0.03,1.35-0.16,1.92-0.53c0.83-0.44,1.62-0.96,2.35-1.55c0.92-0.71,1.84-1.45,2.75-2.21
			c0.91-0.76,1.82-1.54,2.66-2.3l0.74-0.67l0.03,0.06l0.4-0.37c1.49-1.37,2.68-2.48,3.51-3.31c0.84-0.83,1.48-1.49,1.95-2.01
			c0.17-0.19,0.33-0.36,0.48-0.52c-0.1,0.26-0.21,0.53-0.31,0.8c-0.42,1.06-0.86,2.15-1.31,3.26c-0.45,1.11-0.89,2.21-1.31,3.29
			c-0.42,1.08-0.78,2.11-1.06,3.05l-0.03,0.09l0.02,0.1c0.09,0.52,0.47,0.95,0.98,1.08c0.18,0.06,0.36,0.09,0.54,0.09
			c0.32,0,0.64-0.1,0.9-0.28l0.06-0.05c1.28-1.25,2.62-2.69,4-4.27c1.37-1.58,2.77-3.23,4.12-4.87c1.37-1.66,2.72-3.26,4.01-4.77
			c1.02-1.18,1.98-2.25,2.87-3.18c-0.39,0.7-0.88,1.52-1.45,2.47c-0.69,1.15-1.36,2.37-1.97,3.63c-0.6,1.21-1.08,2.47-1.46,3.76
			c-0.36,1.07-0.38,2.23-0.04,3.32l0.04,0.08c0.41,0.63,1.13,1,1.88,0.98c0.67,0.04,1.33-0.05,1.97-0.27L40,26.28
			c0.83-0.44,1.61-0.97,2.33-1.57c0.88-0.71,1.78-1.48,2.69-2.28c0.49-0.43,0.96-0.85,1.42-1.27c-0.01,0.2-0.02,0.4-0.02,0.59
			c-0.03,0.93,0.35,1.83,1.05,2.46c0.49,0.44,1.13,0.68,1.78,0.67c0.31,0,0.62-0.04,0.92-0.13c1.08-0.3,2.1-0.77,3.02-1.4
			c1.08-0.71,2.1-1.5,3.06-2.36c0.87-0.78,1.67-1.53,2.39-2.25c0.52,0.62,1.2,1.09,1.97,1.35c1.02,0.24,2.1-0.01,2.91-0.69
			c1.11-0.75,2.16-1.58,3.15-2.48c0.37-0.34,0.71-0.65,1.03-0.94l0.09,0.1l0.3-0.26c0.95-0.83,1.85-1.71,2.71-2.65
			c0.7-0.79,1.49-1.62,2.34-2.5c0.09-0.11,0.2-0.2,0.34-0.25c0.05,0.04,0.09,0.09,0.13,0.14c0.09,0.12,0.2,0.23,0.32,0.31
			c0.18,0.17,0.42,0.37,0.73,0.63c0.3,0.25,0.63,0.54,0.96,0.85c0.32,0.3,0.61,0.61,0.88,0.95c0.2,0.24,0.35,0.52,0.42,0.83
			c0.07,0.39,0.1,0.78,0.09,1.17c-0.04,0.35-0.19,0.67-0.43,0.92c-0.52,0.52-1.18,0.88-1.9,1.04c-0.62,0.21-1.3,0.09-1.82-0.3
			c-0.67-0.54-1.53-0.78-2.38-0.67c-0.61,0.01-1.19,0.28-1.59,0.74c-0.25,0.36-0.33,0.8-0.24,1.23c0.09,0.35,0.25,0.67,0.48,0.95
			c0.22,0.27,0.49,0.51,0.79,0.69c0.2,0.13,0.41,0.24,0.63,0.33c0.72,0.26,1.47,0.4,2.23,0.39c0.06,0,0.12,0,0.18,0
			c0.81-0.02,1.61-0.16,2.38-0.41c1.48-0.5,2.82-1.36,3.9-2.49c0.65-0.5,1.33-1.06,2.02-1.65c0.69-0.59,1.37-1.19,2.02-1.76
			c0.63-0.48,1.23-1.01,1.79-1.57C91.01,5.64,86.59,7.33,82.95,10.87 M56.5,13.35c-0.02,0.98,0.17,1.94,0.55,2.84
			c-0.65,0.74-1.32,1.43-1.98,2.06c-0.72,0.69-1.42,1.3-2.08,1.82c-0.56,0.45-1.17,0.85-1.81,1.17c-0.39,0.22-0.83,0.34-1.28,0.35
			c-0.12-0.02-0.16-0.06-0.17-0.08c-0.05-0.06-0.14-0.28-0.01-0.9c0.24-1.02,0.62-2.01,1.12-2.93c1.13-2.13,2.45-4.14,3.96-6.01
			c1.45-1.76,3.17-3.29,5.09-4.53c0.51-0.35,1.05-0.64,1.61-0.87c0.27-0.12,0.56-0.18,0.86-0.2c0.07,0,0.13,0.01,0.2,0.02
			c0.08,0.02,0.24,0.05,0.3,0.41c0.03,0.57-0.1,1.15-0.36,1.66c-0.18,0.42-0.43,0.94-0.74,1.54c-0.2,0.38-0.43,0.79-0.68,1.22
			c-0.13-0.32-0.3-0.61-0.52-0.87l-0.02-0.02c-0.46-0.65-1.28-0.94-2.04-0.71c-0.66,0.27-1.18,0.8-1.46,1.46
			C56.69,11.59,56.5,12.47,56.5,13.35"/>
		<path id="Trazado_52" class="st2" d="M30.74,6.03c0.65,0.45,1.54,0.29,2-0.36c0.06-0.08,1.53-2.03,4.95-0.45
			c3.61,1.66,6.74,0.96,8.47-0.25c1.28-0.79,2.03-2.22,1.97-3.72c-0.03-0.38-0.21-0.74-0.5-0.98c-0.61-0.51-1.51-0.44-2.02,0.17
			c-0.24,0.29-0.36,0.66-0.34,1.03c-0.04,0.48-0.33,0.92-0.75,1.15c-1.03,0.72-3.12,1.15-5.63-0.01c-4.51-2.07-7.54,0.02-8.51,1.42
			C29.93,4.69,30.09,5.58,30.74,6.03"/>
		<path id="Trazado_53" class="st2" d="M17.13,40.83c0,0,0.17-0.18,0.56-0.53c0.19-0.18,0.42-0.38,0.7-0.61
			c0.28-0.23,0.59-0.51,0.96-0.79l1.22-0.92c0.45-0.32,0.95-0.65,1.49-1.02c0.27-0.18,0.54-0.37,0.83-0.55l0.9-0.55l0.95-0.58
			c0.32-0.2,0.65-0.4,1-0.58l2.17-1.17c0.37-0.21,0.77-0.39,1.16-0.57l1.21-0.57c1.62-0.81,3.41-1.47,5.24-2.22
			c0.46-0.2,0.93-0.34,1.4-0.5l1.43-0.49l1.45-0.49l0.73-0.25c0.24-0.08,0.49-0.14,0.74-0.21l3.01-0.83l1.52-0.42l1.54-0.33
			c2.06-0.42,4.1-0.95,6.16-1.22l3.04-0.48c0.5-0.08,1-0.15,1.49-0.23l1.48-0.15c1.97-0.19,3.86-0.39,5.66-0.55l5.08-0.22l2.26-0.1
			l2.04,0.02l3.32,0.04l2.89,0.03c0.89-0.01,1.62,0.71,1.63,1.6c0.01,0.89-0.71,1.63-1.6,1.63c-0.02,0-0.05,0-0.07,0h-0.04h-0.09
			l-2.83-0.11l-3.25-0.13l-2-0.08l-2.21,0.03l-4.98,0.07c-1.77,0.1-3.62,0.25-5.55,0.38l-1.46,0.1l-1.47,0.18l-2.98,0.38
			c-2.02,0.2-4.03,0.66-6.05,1.01l-1.52,0.28l-1.49,0.37l-2.97,0.73c-0.24,0.06-0.49,0.12-0.73,0.18l-0.72,0.22l-1.43,0.44
			l-1.41,0.43c-0.47,0.15-0.94,0.27-1.38,0.45c-1.8,0.68-3.57,1.27-5.17,2.02l-1.2,0.52c-0.39,0.17-0.79,0.33-1.15,0.53l-2.15,1.08
			c-0.35,0.17-0.68,0.35-1,0.54l-0.94,0.53c-0.3,0.17-0.6,0.34-0.89,0.51s-0.55,0.35-0.82,0.51c-0.52,0.34-1.02,0.65-1.47,0.95
			L20.2,40c-0.37,0.26-0.67,0.51-0.94,0.72c-0.28,0.21-0.5,0.39-0.67,0.55c-0.35,0.3-0.54,0.48-0.54,0.48
			c-0.26,0.25-0.67,0.25-0.92-0.01c-0.25-0.25-0.25-0.65,0-0.91L17.13,40.83z"/>
	</g>
</g>
</svg>
