<?xml version="1.0" encoding="utf-8"?>
<!-- Generator: Adobe Illustrator 24.1.0, SVG Export Plug-In . SVG Version: 6.00 Build 0)  -->
<svg version="1.1" id="Layer_1" xmlns="http://www.w3.org/2000/svg" xmlns:xlink="http://www.w3.org/1999/xlink" x="0px" y="0px"
	 viewBox="0 0 187 138" style="enable-background:new 0 0 187 138;" xml:space="preserve">
<style type="text/css">
	.st0{fill:#FFFFFF;}
	.st1{enable-background:new    ;}
</style>
<g id="Grupo_526" transform="translate(-243 -1585)">
	<path class="st0" d="M277.39,1585.62v43.59h-7.33l-18.95-30.58v30.58h-7.83v-43.59h7.77l18.51,30.08v-30.08H277.39z"/>
	<path class="st0" d="M292.79,1627.13c-2.9-1.81-5.12-4.39-6.65-7.75c-1.53-3.36-2.3-7.35-2.3-11.96s0.77-8.59,2.3-11.96
		c1.53-3.36,3.75-5.95,6.65-7.75c2.9-1.81,6.32-2.71,10.25-2.71c3.93,0,7.34,0.9,10.22,2.71c2.88,1.81,5.08,4.39,6.62,7.75
		c1.53,3.36,2.3,7.35,2.3,11.96s-0.77,8.59-2.3,11.96c-1.53,3.36-3.74,5.95-6.62,7.75c-2.88,1.81-6.28,2.71-10.22,2.71
		C299.11,1629.84,295.69,1628.93,292.79,1627.13z M311.28,1619.25c2.01-2.87,3.01-6.81,3.01-11.83c0-5.02-1-8.98-3.01-11.86
		c-2.01-2.89-4.75-4.33-8.23-4.33c-3.52,0-6.29,1.44-8.29,4.33c-2.01,2.89-3.01,6.84-3.01,11.86c0,5.02,1,8.97,3.01,11.83
		c2.01,2.86,4.77,4.3,8.29,4.3C306.52,1623.55,309.27,1622.12,311.28,1619.25z"/>
	<path class="st0" d="M360.63,1585.62l-15.03,43.59h-7.27l-15.03-43.59h8.26l10.44,33.44l10.38-33.44H360.63z"/>
	<path class="st0" d="M366.1,1585.62h27.89v6.35h-20.07v11.15h17.95v6.35h-17.95v13.39h20.07v6.35H366.1V1585.62z"/>
	<g class="st1">
		<path class="st0" d="M243.4,1645.99h11.78c4.62,0,8.09,1.39,10.43,4.16c2.34,2.77,3.51,6.9,3.51,12.38
			c0,4.27-0.52,7.71-1.57,10.34c-1.05,2.63-2.69,4.54-4.91,5.76c-2.23,1.21-5.15,1.82-8.79,1.82H243.4V1645.99z M254.59,1675.42
			c2.98,0,5.11-1,6.41-3c1.29-2,1.94-5.3,1.94-9.89c0-4.04-0.63-6.96-1.89-8.78c-1.26-1.82-3.26-2.73-6.01-2.73h-5.45v24.41H254.59z
			"/>
		<path class="st0" d="M293.33,1674.14H281l-1.91,6.3h-6.53l11.83-34.45h5.55l11.83,34.45h-6.53L293.33,1674.14z M291.8,1669.17
			l-4.61-15.06l-4.66,15.06H291.8z"/>
		<path class="st0" d="M308.79,1645.99h11.78c4.61,0,8.09,1.39,10.43,4.16c2.34,2.77,3.51,6.9,3.51,12.38
			c0,4.27-0.52,7.71-1.57,10.34c-1.05,2.63-2.68,4.54-4.91,5.76c-2.23,1.21-5.16,1.82-8.79,1.82h-10.46V1645.99z M319.99,1675.42
			c2.98,0,5.11-1,6.41-3c1.29-2,1.94-5.3,1.94-9.89c0-4.04-0.63-6.96-1.89-8.78c-1.26-1.82-3.27-2.73-6.01-2.73h-5.45v24.41H319.99z
			"/>
		<path class="st0" d="M342.72,1645.99h22.04v5.02H348.9v8.81h14.19v5.02H348.9v10.58h15.86v5.02h-22.04V1645.99z"/>
		<path class="st0" d="M376.08,1679.41c-2.05-1.02-3.71-2.46-4.98-4.33l3.68-3.54c1.05,1.28,2.33,2.33,3.85,3.15
			c1.52,0.82,2.99,1.23,4.39,1.23c1.67,0,3-0.39,4-1.18c1-0.79,1.5-1.82,1.5-3.1c0-0.92-0.16-1.68-0.49-2.29
			c-0.33-0.61-0.93-1.21-1.82-1.82c-0.88-0.61-2.24-1.37-4.08-2.29c-2.42-1.18-4.34-2.3-5.74-3.35c-1.41-1.05-2.44-2.17-3.09-3.35
			c-0.66-1.18-0.98-2.54-0.98-4.09c0-1.77,0.47-3.34,1.4-4.7c0.93-1.36,2.23-2.41,3.9-3.15c1.67-0.74,3.6-1.11,5.79-1.11
			c2.39,0,4.52,0.48,6.41,1.43c1.88,0.95,3.27,2.25,4.15,3.89l-3.98,2.95c-0.78-1.02-1.73-1.81-2.82-2.39
			c-1.1-0.57-2.27-0.86-3.51-0.86c-1.6,0-2.86,0.34-3.76,1.01c-0.9,0.67-1.35,1.62-1.35,2.83c0,0.76,0.2,1.4,0.61,1.94
			c0.41,0.54,1.14,1.14,2.21,1.8c1.06,0.66,2.69,1.51,4.88,2.56c3.11,1.48,5.29,3.01,6.55,4.6c1.26,1.59,1.89,3.59,1.89,5.98
			c0,1.94-0.49,3.63-1.47,5.09c-0.98,1.46-2.37,2.59-4.17,3.4c-1.8,0.8-3.88,1.21-6.24,1.21
			C380.38,1680.93,378.12,1680.43,376.08,1679.41z"/>
	</g>
	<g class="st1">
		<path class="st0" d="M243,1696.61h7.97c3.39,0,5.89,1.02,7.53,3.07s2.45,5.19,2.45,9.42c0,3.2-0.38,5.79-1.13,7.77
			c-0.75,1.98-1.93,3.44-3.54,4.37c-1.61,0.93-3.72,1.39-6.34,1.39H243V1696.61z M250.53,1720.32c2.67,0,4.62-0.9,5.86-2.69
			c1.24-1.8,1.85-4.64,1.85-8.53c0-3.54-0.58-6.13-1.74-7.75c-1.16-1.62-3.03-2.43-5.6-2.43h-5.15v21.41H250.53z"/>
		<path class="st0" d="M268.51,1696.61h14.98v2.3h-12.23v8.85h10.94v2.34h-10.94v10.22h12.23v2.3h-14.98V1696.61z"/>
		<path class="st0" d="M291.31,1696.61h2.74v23.71h12.64v2.3h-15.39V1696.61z"/>
		<path class="st0" d="M348.62,1696.61v26.02h-2.67v-21.37l-7.93,21.37h-1.85l-7.9-21.37v21.37h-2.67v-26.02h3.37l8.12,22.41
			l8.16-22.41H348.62z"/>
		<path class="st0" d="M357.59,1696.61h14.98v2.3h-12.23v8.85h10.94v2.34h-10.94v10.22h12.23v2.3h-14.98V1696.61z"/>
		<path class="st0" d="M382.3,1721.96c-1.42-0.69-2.56-1.64-3.43-2.82l1.71-1.71c0.77,0.97,1.74,1.75,2.91,2.36s2.33,0.91,3.47,0.91
			c1.58,0,2.86-0.41,3.84-1.23c0.98-0.82,1.46-1.9,1.46-3.23c0-1.26-0.4-2.34-1.19-3.23c-0.79-0.89-2.22-1.85-4.3-2.86
			c-1.8-0.89-3.22-1.72-4.24-2.47c-1.03-0.76-1.75-1.53-2.19-2.32c-0.43-0.79-0.65-1.7-0.65-2.71c0-1.96,0.69-3.51,2.06-4.66
			c1.37-1.15,3.21-1.73,5.51-1.73c1.58,0,3.04,0.36,4.37,1.08c1.33,0.72,2.32,1.67,2.97,2.86l-1.85,1.3
			c-0.57-0.89-1.35-1.6-2.34-2.14c-0.99-0.53-2.04-0.8-3.15-0.8c-1.46,0-2.63,0.37-3.5,1.1c-0.88,0.73-1.32,1.7-1.32,2.92
			c0,0.72,0.16,1.33,0.48,1.84c0.32,0.51,0.91,1.04,1.76,1.6c0.85,0.56,2.16,1.28,3.91,2.17c2.3,1.14,3.94,2.32,4.93,3.53
			c0.99,1.21,1.48,2.65,1.48,4.31c0,1.39-0.34,2.61-1.02,3.68c-0.68,1.07-1.64,1.88-2.87,2.45c-1.24,0.57-2.66,0.86-4.26,0.86
			C385.24,1723,383.72,1722.65,382.3,1721.96z"/>
	</g>
</g>
<path id="Trazado_124" class="st0" d="M157,24v18.08l15.65,20.4L157,82.82V101l30-38.52L157,24z"/>
</svg>
