<?xml version="1.0" encoding="utf-8"?>
<!-- Generator: Adobe Illustrator 24.1.0, SVG Export Plug-In . SVG Version: 6.00 Build 0)  -->
<svg version="1.1" id="Layer_1" xmlns="http://www.w3.org/2000/svg" xmlns:xlink="http://www.w3.org/1999/xlink" x="0px" y="0px"
	 viewBox="0 0 125 37" style="enable-background:new 0 0 125 37;" xml:space="preserve">
<style type="text/css">
	.st0{fill:#FFFFFF;}
</style>
<g id="Grupo_49" transform="translate(-359.084 -452.964)">
	<path id="Trazado_55" class="st0" d="M417.64,489.96h4.95v-7.61c0.08-1.21-0.17-2.41-0.72-3.49c-0.59-0.82-1.45-1.41-2.43-1.66
		l-1.21-0.39l1.2-0.42c1.21-0.41,2.24-1.23,2.91-2.31c0.69-1.16,1.05-2.49,1.02-3.85c0.01-1.06-0.19-2.11-0.58-3.1
		c-0.37-0.93-0.94-1.76-1.67-2.45c-0.75-0.7-1.64-1.25-2.6-1.62c-1.09-0.4-2.24-0.6-3.41-0.59h-13.94v27.48h4.9v-11.1h6.73
		c1.84,0,3.07,0.33,3.79,0.99c0.79,0.88,1.18,2.06,1.07,3.24L417.64,489.96z M413.89,474.9h-7.84v-8.36h8.06
		c1.28-0.11,2.55,0.32,3.49,1.2c0.73,0.83,1.11,1.9,1.07,3c0.03,1.09-0.36,2.15-1.09,2.96C416.56,474.6,415.23,475.03,413.89,474.9"
		/>
	<path id="Trazado_56" class="st0" d="M424.62,489.96v-27.5h20.89v3.91H428.7v7.76h16.81v4.02H428.7v7.64h16.79v4.16L424.62,489.96z
		"/>
	<path id="Trazado_57" class="st0" d="M375.05,486.52v-14.15l-3.85,14.15h-4.28l-3.82-14.09v14.09h-4.01v-20.65h6.34l3.73,15.15
		l3.72-15.15h6.22v20.65H375.05z"/>
	<path id="Trazado_58" class="st0" d="M390.17,487.22c-3.19,0-5.63-0.93-7.34-2.8s-2.56-4.55-2.56-8.05
		c-0.02-1.59,0.2-3.17,0.65-4.7c0.39-1.3,1.04-2.5,1.93-3.53c0.85-0.97,1.91-1.72,3.11-2.21c2.72-1.02,5.71-1.02,8.43,0
		c1.2,0.48,2.26,1.24,3.09,2.23c0.87,1.05,1.51,2.26,1.89,3.56c0.45,1.54,0.67,3.14,0.65,4.75c0,3.56-0.84,6.25-2.53,8.05
		C395.8,486.32,393.37,487.22,390.17,487.22 M390.18,483.52c0.75,0,1.48-0.14,2.17-0.42c0.69-0.28,1.3-0.72,1.79-1.27
		c0.55-0.64,0.96-1.39,1.2-2.19c0.31-1.03,0.46-2.1,0.44-3.17c0.13-1.96-0.37-3.92-1.43-5.57c-0.99-1.28-2.55-1.99-4.16-1.9
		c-1.62-0.09-3.19,0.62-4.19,1.9c-1.08,1.65-1.6,3.61-1.46,5.57c0,2.44,0.49,4.23,1.47,5.36
		C387.07,482.99,388.61,483.62,390.18,483.52"/>
	<path id="Trazado_59" class="st0" d="M459.7,486.52l-8.82-13.87v13.87h-4.01v-20.65h4.56l8.2,13.28v-13.28h4.04v20.65H459.7z"/>
	<path id="Trazado_60" class="st0" d="M479.4,486.52l-1.3-4.26h-7.61l-1.46,4.26h-4.56l7.36-20.65h5l7.27,20.65L479.4,486.52z
		 M474.27,470.5h-0.03l-2.64,8.24h5.25L474.27,470.5z"/>
	<rect id="Rect치ngulo_32" x="359.08" y="462.48" class="st0" width="40.11" height="1.1"/>
	<rect id="Rect치ngulo_33" x="447.29" y="462.48" class="st0" width="36.79" height="1.1"/>
	<rect id="Rect치ngulo_34" x="359.08" y="488.86" class="st0" width="40.11" height="1.1"/>
	<rect id="Rect치ngulo_35" x="447.29" y="488.86" class="st0" width="36.79" height="1.1"/>
	<path id="Trazado_61" class="st0" d="M404.11,454.57c0,0.05-0.02,0.1-0.05,0.14c-0.04,0.04-0.09,0.06-0.15,0.06h-0.11
		c-0.05,0-0.1-0.02-0.14-0.05c-0.04-0.04-0.07-0.09-0.06-0.14c0-0.15-0.03-0.29-0.06-0.43c-0.03-0.13-0.09-0.25-0.16-0.36
		c-0.08-0.1-0.18-0.18-0.29-0.24c-0.26-0.11-0.56-0.12-0.83-0.01c-0.12,0.05-0.22,0.13-0.31,0.21c-0.09,0.09-0.16,0.2-0.21,0.32
		c-0.05,0.12-0.08,0.25-0.08,0.39c0,0.13,0.02,0.26,0.06,0.39c0.05,0.13,0.12,0.25,0.22,0.36c0.29,0.33,0.57,0.66,0.85,0.99
		c0.28,0.33,0.56,0.65,0.85,0.98c0.1,0.11,0.18,0.21,0.24,0.3c0.06,0.08,0.1,0.16,0.14,0.25c0.04,0.08,0.06,0.17,0.08,0.25
		c0.02,0.09,0.03,0.19,0.03,0.28c0,0.19-0.04,0.38-0.12,0.56c-0.08,0.18-0.18,0.34-0.32,0.48c-0.13,0.14-0.29,0.26-0.47,0.34
		c-0.18,0.08-0.38,0.13-0.59,0.13c-0.21,0-0.43-0.04-0.63-0.12c-0.18-0.07-0.34-0.18-0.47-0.32c-0.13-0.14-0.23-0.3-0.29-0.48
		c-0.07-0.19-0.1-0.39-0.1-0.59v-0.15c0-0.05,0.02-0.1,0.05-0.13c0.04-0.04,0.09-0.06,0.15-0.06h0.11c0.05,0,0.1,0.02,0.14,0.06
		c0.04,0.03,0.07,0.09,0.07,0.14v0.04c0,0.13,0.01,0.26,0.03,0.39c0.02,0.13,0.07,0.26,0.14,0.37c0.08,0.11,0.18,0.21,0.3,0.28
		c0.16,0.08,0.33,0.11,0.5,0.11c0.13,0,0.26-0.03,0.38-0.08c0.12-0.05,0.23-0.13,0.32-0.22c0.19-0.2,0.29-0.46,0.29-0.74
		c0-0.14-0.04-0.27-0.11-0.39c-0.07-0.13-0.16-0.25-0.25-0.36l-1.7-1.97c-0.13-0.15-0.23-0.32-0.3-0.5
		c-0.08-0.19-0.11-0.38-0.11-0.58c0-0.2,0.03-0.4,0.11-0.58c0.07-0.18,0.18-0.34,0.31-0.48c0.14-0.13,0.29-0.24,0.47-0.32
		c0.37-0.15,0.79-0.15,1.16,0c0.17,0.08,0.33,0.18,0.47,0.32c0.13,0.14,0.24,0.3,0.31,0.48c0.08,0.18,0.11,0.38,0.11,0.58
		L404.11,454.57z"/>
	<path id="Trazado_62" class="st0" d="M408.13,453.26c0-0.05,0.02-0.1,0.05-0.13c0.04-0.04,0.09-0.07,0.15-0.06h0.1
		c0.05,0,0.11,0.02,0.14,0.06c0.04,0.04,0.06,0.09,0.06,0.14v4.99c0,0.4-0.15,0.78-0.43,1.06c-0.14,0.13-0.3,0.24-0.47,0.32
		c-0.56,0.24-1.21,0.11-1.64-0.32c-0.13-0.14-0.24-0.3-0.32-0.47c-0.08-0.19-0.12-0.38-0.12-0.58v-4.99c0-0.05,0.02-0.1,0.05-0.13
		c0.04-0.04,0.09-0.07,0.15-0.06h0.1c0.05,0,0.1,0.02,0.14,0.06c0.04,0.03,0.07,0.09,0.06,0.14v4.99c0,0.13,0.03,0.27,0.08,0.39
		c0.05,0.12,0.12,0.22,0.21,0.32c0.09,0.09,0.19,0.17,0.31,0.21c0.12,0.05,0.25,0.08,0.38,0.08c0.26,0.01,0.52-0.1,0.7-0.29
		c0.19-0.19,0.29-0.44,0.28-0.71L408.13,453.26z"/>
	<path id="Trazado_63" class="st0" d="M410.31,453.28c0-0.11,0.08-0.2,0.19-0.21c0,0,0,0,0.01,0h1.28c0.2,0,0.4,0.03,0.58,0.1
		c0.18,0.07,0.34,0.17,0.47,0.3c0.13,0.13,0.24,0.29,0.32,0.46c0.08,0.2,0.12,0.4,0.12,0.62v1.78c0,0.2-0.04,0.4-0.12,0.58
		c-0.08,0.17-0.18,0.33-0.32,0.47c-0.14,0.14-0.3,0.24-0.47,0.32c-0.18,0.08-0.38,0.12-0.58,0.12h-0.98v1.62
		c0.01,0.1-0.05,0.19-0.15,0.21c-0.02,0-0.03,0-0.05,0h-0.11c-0.13,0-0.19-0.07-0.19-0.21L410.31,453.28z M410.81,453.56v3.77h0.98
		c0.13,0,0.26-0.03,0.38-0.08c0.12-0.05,0.23-0.13,0.32-0.22c0.09-0.09,0.16-0.2,0.22-0.32c0.05-0.12,0.08-0.25,0.08-0.38v-1.77
		c0-0.13-0.03-0.26-0.08-0.39c-0.05-0.12-0.12-0.23-0.22-0.32c-0.09-0.09-0.2-0.17-0.32-0.22c-0.12-0.05-0.25-0.08-0.38-0.08
		L410.81,453.56z"/>
	<path id="Trazado_64" class="st0" d="M417.27,453.07c0.05,0,0.1,0.02,0.14,0.05c0.04,0.04,0.06,0.09,0.05,0.15v0.11
		c0,0.05-0.02,0.1-0.05,0.14c-0.03,0.04-0.09,0.07-0.14,0.07h-2v2.53h1.61c0.05,0,0.1,0.02,0.14,0.05c0.04,0.04,0.06,0.09,0.06,0.15
		v0.11c0,0.05-0.02,0.1-0.06,0.14c-0.03,0.04-0.08,0.07-0.14,0.06h-1.61v2.52h2c0.05,0,0.1,0.02,0.14,0.05
		c0.04,0.04,0.06,0.09,0.05,0.15v0.1c0,0.05-0.02,0.1-0.05,0.14c-0.03,0.04-0.09,0.07-0.14,0.07h-2.31c-0.1,0.02-0.18-0.05-0.2-0.14
		c0-0.02,0-0.03,0-0.05v-6.17c0-0.05,0.02-0.1,0.05-0.14c0.04-0.04,0.09-0.06,0.15-0.06L417.27,453.07z"/>
	<path id="Trazado_65" class="st0" d="M418.76,453.27c0-0.05,0.02-0.1,0.05-0.14c0.04-0.04,0.09-0.06,0.15-0.06h1.29
		c0.2,0,0.4,0.04,0.58,0.11c0.18,0.07,0.34,0.17,0.48,0.3c0.14,0.13,0.25,0.29,0.32,0.47c0.08,0.19,0.12,0.4,0.11,0.61v0.54
		c0,0.28-0.08,0.55-0.24,0.79c-0.15,0.22-0.35,0.41-0.58,0.54l0.86,2.92c0.05,0.19,0,0.29-0.14,0.29h-0.13
		c-0.12,0-0.22-0.09-0.24-0.21l-0.82-2.84h-1.2v2.84c0.01,0.1-0.05,0.19-0.15,0.21c-0.02,0-0.03,0-0.05,0h-0.11
		c-0.13,0-0.2-0.07-0.2-0.21L418.76,453.27z M419.27,453.56v2.55h0.98c0.13,0,0.27-0.02,0.39-0.08c0.12-0.05,0.23-0.12,0.33-0.21
		c0.09-0.09,0.17-0.2,0.22-0.32c0.05-0.12,0.08-0.26,0.08-0.39v-0.54c0-0.13-0.03-0.26-0.08-0.39c-0.05-0.12-0.13-0.23-0.22-0.32
		c-0.09-0.09-0.2-0.17-0.33-0.22c-0.12-0.05-0.26-0.08-0.39-0.08L419.27,453.56z"/>
	<path id="Trazado_66" class="st0" d="M425.72,453.07c0.05,0,0.1,0.02,0.14,0.05c0.04,0.04,0.06,0.09,0.06,0.15v0.11
		c0,0.05-0.02,0.1-0.05,0.14c-0.03,0.04-0.09,0.07-0.14,0.07h-1.04v5.86c0,0.13-0.07,0.2-0.21,0.2h-0.1
		c-0.09,0.01-0.18-0.05-0.2-0.15c0-0.02,0-0.03,0-0.05v-5.86h-1.06c-0.13,0-0.2-0.07-0.2-0.2v-0.11c-0.01-0.09,0.05-0.18,0.14-0.2
		c0.02,0,0.04,0,0.06,0L425.72,453.07z"/>
	<path id="Trazado_67" class="st0" d="M427.35,453.26c0-0.05,0.02-0.1,0.05-0.13c0.04-0.04,0.09-0.07,0.15-0.06h0.11
		c0.05,0,0.1,0.02,0.14,0.06c0.04,0.03,0.07,0.09,0.07,0.14v6.16c0.01,0.1-0.05,0.19-0.15,0.21c-0.02,0-0.03,0-0.05,0h-0.11
		c-0.13,0-0.2-0.07-0.2-0.21L427.35,453.26z"/>
	<path id="Trazado_68" class="st0" d="M432.03,453.07c0.05,0,0.1,0.02,0.13,0.05c0.04,0.04,0.06,0.09,0.06,0.15v0.11
		c0,0.05-0.02,0.1-0.05,0.14c-0.03,0.04-0.09,0.07-0.14,0.07h-2v2.53h1.61c0.05,0,0.1,0.02,0.14,0.05c0.04,0.04,0.06,0.09,0.06,0.15
		v0.11c0,0.05-0.02,0.1-0.06,0.14c-0.03,0.04-0.08,0.07-0.14,0.06h-1.62v2.52h2c0.05,0,0.1,0.02,0.13,0.05
		c0.04,0.04,0.06,0.09,0.06,0.15v0.1c0,0.05-0.02,0.1-0.05,0.14c-0.03,0.04-0.09,0.07-0.14,0.07h-2.32
		c-0.09,0.01-0.18-0.05-0.19-0.15c0-0.02,0-0.03,0-0.05v-6.17c0-0.05,0.02-0.1,0.05-0.14c0.04-0.04,0.09-0.06,0.14-0.06
		L432.03,453.07z"/>
	<path id="Trazado_69" class="st0" d="M436.19,459.63c-0.05,0-0.1-0.02-0.13-0.06c-0.03-0.04-0.06-0.09-0.08-0.14l-1.93-4.92v4.92
		c0.01,0.1-0.05,0.19-0.15,0.21c-0.02,0-0.03,0-0.05,0h-0.11c-0.13,0-0.19-0.07-0.19-0.21v-6.15c0-0.06,0.02-0.11,0.06-0.15
		c0.04-0.04,0.09-0.06,0.14-0.06h0.17c0.05,0,0.1,0.02,0.13,0.06c0.03,0.05,0.05,0.1,0.08,0.15l1.93,4.94v-4.95
		c0-0.05,0.01-0.1,0.05-0.13c0.04-0.04,0.09-0.06,0.15-0.06h0.11c0.05,0,0.1,0.02,0.14,0.06c0.04,0.03,0.07,0.09,0.06,0.14v6.16
		c0,0.05-0.02,0.11-0.06,0.15c-0.04,0.04-0.09,0.06-0.15,0.06L436.19,459.63z"/>
	<path id="Trazado_70" class="st0" d="M438.22,453.28c0-0.06,0.02-0.11,0.06-0.15c0.04-0.04,0.09-0.06,0.14-0.06h1.28
		c0.2,0,0.4,0.03,0.58,0.1c0.18,0.07,0.34,0.17,0.48,0.3c0.13,0.13,0.24,0.3,0.31,0.47c0.08,0.2,0.12,0.4,0.12,0.62v3.59
		c0,0.2-0.04,0.4-0.12,0.58c-0.07,0.18-0.18,0.34-0.31,0.47c-0.14,0.13-0.3,0.24-0.48,0.32c-0.18,0.08-0.38,0.12-0.58,0.12h-1.28
		c-0.05,0-0.11-0.02-0.14-0.06c-0.04-0.04-0.06-0.09-0.06-0.15V453.28z M438.71,453.56v5.59h1c0.13,0,0.26-0.03,0.38-0.08
		c0.12-0.05,0.23-0.12,0.32-0.22c0.09-0.09,0.17-0.2,0.22-0.32c0.05-0.12,0.08-0.26,0.08-0.39v-3.59c-0.01-0.4-0.25-0.76-0.62-0.92
		c-0.12-0.05-0.25-0.08-0.38-0.08L438.71,453.56z"/>
	<path id="Trazado_71" class="st0" d="M445.7,459.45c0.02,0.13-0.03,0.19-0.16,0.19h-0.13c-0.11,0.01-0.21-0.07-0.22-0.19
		l-0.16-0.72h-1.86l-0.12,0.72c-0.01,0.11-0.1,0.19-0.21,0.19c0,0-0.01,0-0.01,0h-0.12c-0.14,0-0.2-0.06-0.18-0.19l1.23-6.17
		c0.01-0.05,0.03-0.1,0.07-0.15c0.03-0.04,0.08-0.06,0.14-0.06h0.29c0.05,0,0.1,0.02,0.14,0.06c0.03,0.04,0.06,0.09,0.07,0.15
		L445.7,459.45z M444.13,454.15l-0.84,4.11h1.66L444.13,454.15z"/>
	<path id="Trazado_72" class="st0" d="M481.97,465.87c1.17,0,2.11,0.95,2.1,2.12c0,1.17-0.95,2.11-2.12,2.11
		c-1.17,0-2.11-0.95-2.11-2.11c0-1.17,0.94-2.11,2.11-2.11l0,0H481.97z M481.95,466.24c-0.96,0.04-1.7,0.85-1.66,1.81
		c0.04,0.91,0.78,1.64,1.69,1.67c0.92,0,1.66-0.75,1.65-1.67c0-0.02,0-0.04,0-0.06c0.03-0.93-0.69-1.71-1.62-1.75
		c-0.01,0-0.03,0-0.04,0H481.95z M481.58,469.13h-0.41v-2.21c0.25-0.04,0.51-0.07,0.77-0.06c0.24-0.03,0.48,0.03,0.68,0.17
		c0.15,0.11,0.23,0.29,0.23,0.47c-0.01,0.25-0.18,0.46-0.42,0.52v0.03c0.2,0.11,0.34,0.31,0.35,0.54c0.03,0.19,0.08,0.37,0.17,0.54
		h-0.42c-0.09-0.18-0.16-0.37-0.18-0.57c-0.06-0.25-0.2-0.36-0.5-0.36h-0.26L481.58,469.13z M481.58,467.89h0.28
		c0.29,0,0.57-0.09,0.57-0.34c0-0.21-0.15-0.37-0.53-0.37c-0.11,0-0.21,0.01-0.32,0.02L481.58,467.89z"/>
</g>
</svg>
