<?xml version="1.0" encoding="utf-8"?>
<!-- Generator: Adobe Illustrator 24.1.0, SVG Export Plug-In . SVG Version: 6.00 Build 0)  -->
<svg version="1.1" id="Layer_1" xmlns="http://www.w3.org/2000/svg" xmlns:xlink="http://www.w3.org/1999/xlink" x="0px" y="0px"
	 viewBox="0 0 220 64" style="enable-background:new 0 0 220 64;" xml:space="preserve">
<style type="text/css">
	.st0{fill:#ED1941;}
	.st1{fill:#6D3357;}
	.st2{fill:#572546;}
</style>
<g>
	<g id="Grupo_1" transform="translate(73.233 16.459)">
		<path id="Trazado_1" class="st0" d="M29.89,47.54h8.62V34.37c0.14-2.09-0.3-4.18-1.26-6.04c-1.03-1.42-2.53-2.44-4.24-2.87
			l-2.1-0.67l2.09-0.73c2.11-0.7,3.91-2.11,5.08-4c1.21-2.01,1.83-4.31,1.78-6.65c0.01-1.83-0.33-3.65-1.02-5.36
			c-0.66-1.61-1.65-3.05-2.91-4.24c-1.32-1.22-2.87-2.17-4.55-2.8c-1.9-0.7-3.91-1.04-5.94-1.02H1.12v47.54h8.55v-19.2h11.74
			c3.21,0,5.36,0.57,6.6,1.71c1.24,1.15,1.88,3.03,1.88,5.6L29.89,47.54z M23.34,21.48H9.67V7.01h14.05c2.78,0,4.83,0.7,6.09,2.08
			c1.27,1.43,1.93,3.29,1.87,5.2c0.06,1.89-0.62,3.73-1.9,5.12C28.48,20.78,26.32,21.48,23.34,21.48L23.34,21.48z"/>
	</g>
	<path id="Trazado_2" class="st0" d="M115.29,64V16.44h36.44v6.75h-29.32v13.42h29.32v6.96h-29.32V56.8h29.28V64H115.29z"/>
	<path id="Trazado_3" class="st1" d="M28.84,58.04V33.56l-6.72,24.48h-7.47L7.99,33.67v24.37H1V22.32h11.05l6.5,26.2l6.49-26.2
		h10.84v35.72L28.84,58.04z"/>
	<path id="Trazado_4" class="st1" d="M55.22,59.25c-5.56,0-9.83-1.61-12.81-4.84c-2.98-3.23-4.47-7.87-4.47-13.93
		c-0.04-2.75,0.35-5.49,1.14-8.13c0.68-2.25,1.82-4.33,3.36-6.1c1.49-1.67,3.34-2.98,5.41-3.82c4.74-1.76,9.96-1.76,14.7,0
		c2.08,0.83,3.93,2.15,5.39,3.85c1.51,1.81,2.63,3.9,3.31,6.16c0.79,2.66,1.17,5.43,1.13,8.21c0,6.17-1.47,10.81-4.41,13.93
		C65.04,57.69,60.78,59.25,55.22,59.25z M55.22,52.85c1.3,0.01,2.59-0.24,3.79-0.73c1.2-0.48,2.26-1.23,3.12-2.2
		c0.95-1.11,1.66-2.4,2.09-3.8c0.54-1.78,0.8-3.62,0.76-5.48c0-4.24-0.83-7.45-2.49-9.64c-1.73-2.22-4.45-3.45-7.26-3.28
		c-2.83-0.16-5.55,1.06-7.31,3.28c-1.7,2.19-2.55,5.41-2.55,9.64s0.86,7.33,2.57,9.28C49.8,51.94,52.47,53.02,55.22,52.85
		L55.22,52.85z"/>
	<path id="Trazado_5" class="st1" d="M176.48,58.04l-15.39-23.99v23.99h-6.98V22.32h7.96l14.3,22.96V22.32h7.05v35.72L176.48,58.04z
		"/>
	<path id="Trazado_6" class="st1" d="M210.82,58.04l-2.27-7.37h-13.27l-2.55,7.37h-7.96l12.84-35.72h8.72L219,58.04L210.82,58.04z
		 M201.88,30.34h-0.05l-4.61,14.25h9.15L201.88,30.34z"/>
	<rect id="Rect치ngulo_3" x="1" y="16.46" class="st1" width="69.95" height="1.91"/>
	<rect id="Rect치ngulo_4" x="154.83" y="16.46" class="st1" width="64.16" height="1.91"/>
	<rect id="Rect치ngulo_5" x="1" y="62.09" class="st1" width="69.95" height="1.9"/>
	<rect id="Rect치ngulo_6" x="154.83" y="62.09" class="st1" width="64.16" height="1.9"/>
	<g id="Grupo_2" transform="translate(73.254)">
		<path id="Trazado_7" class="st1" d="M6.27,2.77c0,0.09-0.03,0.17-0.08,0.24c-0.07,0.07-0.16,0.11-0.25,0.1H5.75
			c-0.09,0-0.18-0.04-0.24-0.1C5.43,2.95,5.39,2.86,5.4,2.76C5.39,2.51,5.35,2.25,5.28,2.01C5.23,1.79,5.13,1.58,5,1.39
			C4.86,1.22,4.69,1.08,4.49,0.98c-0.24-0.11-0.5-0.16-0.77-0.15c-0.23,0-0.46,0.04-0.67,0.13c-0.63,0.28-1.04,0.91-1.04,1.6
			c0,0.23,0.03,0.45,0.11,0.67C2.2,3.46,2.33,3.67,2.5,3.84C3,4.41,3.49,4.98,3.99,5.55s0.98,1.13,1.48,1.71
			c0.15,0.16,0.29,0.34,0.42,0.52c0.1,0.13,0.18,0.28,0.25,0.43C6.2,8.34,6.24,8.49,6.27,8.64c0.03,0.16,0.05,0.33,0.04,0.5
			c0,0.33-0.07,0.66-0.2,0.96c-0.13,0.31-0.32,0.58-0.55,0.82c-0.23,0.24-0.51,0.44-0.82,0.59c-0.32,0.14-0.67,0.22-1.02,0.22
			c-0.37,0.01-0.74-0.06-1.09-0.2c-0.31-0.13-0.58-0.31-0.81-0.55c-0.22-0.24-0.39-0.52-0.51-0.82C1.19,9.83,1.13,9.49,1.13,9.15
			V8.89c0-0.08,0.03-0.17,0.08-0.23c0.07-0.07,0.16-0.11,0.26-0.11h0.19c0.09,0,0.17,0.04,0.24,0.1C1.98,8.71,2.02,8.8,2.02,8.9
			v0.07c0,0.23,0.02,0.45,0.05,0.68c0.04,0.23,0.12,0.45,0.25,0.64c0.14,0.2,0.32,0.36,0.53,0.48c0.27,0.13,0.58,0.2,0.88,0.19
			c0.23,0,0.46-0.05,0.67-0.14c0.21-0.09,0.4-0.23,0.56-0.39c0.16-0.16,0.29-0.36,0.37-0.57c0.09-0.22,0.14-0.46,0.14-0.7
			C5.46,8.91,5.4,8.68,5.28,8.47C5.15,8.25,5,8.04,4.84,7.84l-2.96-3.4C1.66,4.18,1.48,3.89,1.36,3.58
			c-0.13-0.32-0.2-0.66-0.19-1.01C1.16,1.89,1.43,1.23,1.9,0.74C2.14,0.51,2.42,0.33,2.72,0.2c0.65-0.26,1.37-0.26,2.02,0
			c0.3,0.13,0.58,0.32,0.82,0.55c0.23,0.24,0.41,0.52,0.54,0.82c0.13,0.32,0.2,0.66,0.2,1L6.27,2.77z"/>
		<path id="Trazado_8" class="st1" d="M13.28,0.52c0-0.09,0.03-0.17,0.08-0.23c0.07-0.07,0.16-0.11,0.26-0.1h0.18
			c0.09,0,0.18,0.04,0.25,0.1c0.07,0.06,0.11,0.15,0.11,0.24v8.63c0.01,1.04-0.61,1.98-1.57,2.37c-0.32,0.13-0.67,0.2-1.02,0.2
			c-0.69,0-1.35-0.27-1.84-0.75c-0.23-0.24-0.42-0.51-0.55-0.82c-0.14-0.32-0.2-0.66-0.2-1.01V0.52c0-0.08,0.03-0.17,0.08-0.23
			c0.06-0.07,0.16-0.11,0.26-0.1H9.5c0.09,0,0.18,0.04,0.25,0.1c0.07,0.06,0.11,0.15,0.11,0.24v8.63c0,0.23,0.05,0.46,0.13,0.68
			c0.09,0.2,0.22,0.39,0.37,0.55c0.15,0.16,0.34,0.29,0.54,0.37c0.21,0.09,0.44,0.14,0.67,0.13c0.46,0.01,0.9-0.17,1.22-0.51
			c0.32-0.32,0.5-0.77,0.49-1.23L13.28,0.52z"/>
		<path id="Trazado_9" class="st1" d="M17.08,0.54c-0.01-0.19,0.14-0.35,0.33-0.36c0.01,0,0.02,0,0.02,0h2.24
			c0.35,0,0.69,0.06,1.02,0.17c0.62,0.23,1.12,0.71,1.37,1.32c0.14,0.34,0.21,0.7,0.2,1.07v3.08c0,0.35-0.07,0.69-0.2,1.01
			c-0.13,0.3-0.32,0.58-0.55,0.81c-0.48,0.49-1.15,0.76-1.84,0.75h-1.71v2.79c0.02,0.17-0.1,0.33-0.27,0.36c-0.03,0-0.06,0-0.09,0
			h-0.19c-0.23,0-0.34-0.12-0.34-0.36L17.08,0.54z M17.96,1.02v6.53h1.71c0.23,0,0.46-0.05,0.67-0.14c0.21-0.09,0.4-0.22,0.56-0.38
			c0.16-0.16,0.29-0.35,0.38-0.56c0.09-0.21,0.14-0.44,0.14-0.66V2.75c0-0.23-0.04-0.46-0.14-0.67c-0.09-0.21-0.22-0.39-0.38-0.55
			c-0.16-0.16-0.35-0.29-0.56-0.38c-0.21-0.09-0.44-0.13-0.67-0.13H17.96z"/>
		<path id="Trazado_10" class="st1" d="M29.22,0.18c0.09,0,0.17,0.03,0.24,0.08c0.07,0.06,0.11,0.16,0.1,0.25V0.7
			c0,0.09-0.03,0.18-0.09,0.24c-0.06,0.07-0.15,0.12-0.25,0.11h-3.48v4.37h2.8c0.09,0,0.17,0.03,0.24,0.09
			c0.07,0.06,0.11,0.16,0.1,0.25v0.19c0,0.09-0.04,0.18-0.1,0.24c-0.06,0.07-0.15,0.12-0.24,0.11h-2.8v4.35h3.48
			c0.09,0,0.17,0.03,0.24,0.09c0.07,0.06,0.11,0.16,0.1,0.26v0.18c0,0.09-0.03,0.18-0.09,0.25c-0.06,0.07-0.15,0.12-0.25,0.11H25.2
			c-0.16,0.02-0.32-0.09-0.34-0.25c0-0.03,0-0.06,0-0.09V0.52c0-0.09,0.03-0.17,0.09-0.23c0.06-0.07,0.16-0.11,0.25-0.1L29.22,0.18z
			"/>
		<path id="Trazado_11" class="st1" d="M31.82,0.52c0-0.09,0.03-0.17,0.09-0.23c0.06-0.07,0.16-0.11,0.26-0.1h2.25
			c0.35,0,0.69,0.06,1.02,0.19c0.31,0.12,0.59,0.3,0.83,0.52c0.24,0.23,0.43,0.5,0.56,0.81c0.14,0.34,0.2,0.7,0.2,1.06V3.7
			c0.01,0.48-0.14,0.96-0.41,1.36c-0.26,0.38-0.61,0.7-1.01,0.93l1.5,5.05c0.08,0.34,0,0.51-0.24,0.51h-0.23
			c-0.21,0.01-0.39-0.15-0.41-0.36l-1.44-4.91h-2.08v4.9c0.02,0.17-0.1,0.33-0.27,0.36c-0.03,0-0.06,0-0.09,0h-0.19
			c-0.23,0-0.34-0.12-0.34-0.36L31.82,0.52z M32.71,1.02v4.4h1.71c0.23,0,0.46-0.04,0.68-0.13c0.21-0.09,0.4-0.21,0.57-0.37
			c0.16-0.16,0.29-0.35,0.38-0.56c0.09-0.21,0.14-0.44,0.14-0.68V2.75c0-0.23-0.05-0.46-0.14-0.67c-0.09-0.2-0.22-0.39-0.38-0.55
			c-0.16-0.16-0.36-0.29-0.57-0.38c-0.22-0.09-0.45-0.13-0.68-0.13L32.71,1.02z"/>
		<path id="Trazado_12" class="st1" d="M43.95,0.18c0.09,0,0.17,0.03,0.24,0.08c0.07,0.07,0.11,0.16,0.1,0.25V0.7
			c0,0.09-0.03,0.17-0.09,0.24c-0.06,0.07-0.15,0.12-0.25,0.11h-1.81V11.2c0,0.23-0.12,0.34-0.37,0.34h-0.18
			c-0.16,0.02-0.32-0.09-0.34-0.26c0-0.03,0-0.05,0-0.08V1.06h-1.84c-0.23,0-0.34-0.12-0.34-0.35V0.52
			c-0.02-0.16,0.09-0.32,0.26-0.34c0.03,0,0.06,0,0.08,0L43.95,0.18z"/>
		<path id="Trazado_13" class="st1" d="M46.8,0.52c0-0.09,0.03-0.17,0.09-0.23c0.06-0.07,0.16-0.11,0.25-0.1h0.19
			c0.09,0,0.18,0.04,0.24,0.1c0.07,0.06,0.12,0.15,0.12,0.24v10.65c0.02,0.17-0.1,0.33-0.27,0.36c-0.03,0-0.06,0-0.09,0h-0.19
			c-0.22,0-0.34-0.12-0.34-0.36L46.8,0.52z"/>
		<path id="Trazado_14" class="st1" d="M54.97,0.18c0.08,0,0.17,0.03,0.23,0.08c0.07,0.06,0.11,0.16,0.1,0.25V0.7
			c0,0.09-0.03,0.17-0.09,0.24c-0.06,0.07-0.15,0.11-0.24,0.11h-3.49v4.37h2.81c0.09,0,0.17,0.03,0.24,0.09
			c0.07,0.06,0.11,0.16,0.1,0.25v0.19c0,0.09-0.04,0.18-0.1,0.24c-0.06,0.07-0.15,0.12-0.24,0.11h-2.81v4.35h3.49
			c0.08,0,0.17,0.03,0.23,0.09c0.07,0.06,0.11,0.16,0.1,0.26v0.18c0,0.09-0.03,0.18-0.09,0.25c-0.06,0.07-0.15,0.11-0.24,0.11h-4.04
			c-0.16,0.02-0.32-0.09-0.34-0.26c0-0.03,0-0.05,0-0.08V0.52c0-0.09,0.03-0.17,0.09-0.23c0.06-0.07,0.15-0.11,0.25-0.1L54.97,0.18z
			"/>
		<path id="Trazado_15" class="st1" d="M62.21,11.54c-0.09,0-0.17-0.04-0.23-0.11c-0.05-0.08-0.1-0.16-0.13-0.25l-3.36-8.52v8.51
			c0.03,0.17-0.09,0.33-0.26,0.36c-0.03,0-0.06,0-0.09,0h-0.19c-0.23,0-0.34-0.12-0.34-0.36V0.54c0-0.1,0.04-0.19,0.11-0.25
			c0.07-0.06,0.16-0.1,0.25-0.1h0.3c0.09-0.01,0.18,0.03,0.23,0.1c0.05,0.08,0.09,0.17,0.13,0.25L62,9.08V0.52
			c0-0.08,0.03-0.17,0.08-0.23c0.07-0.07,0.16-0.11,0.25-0.1h0.19c0.09,0,0.18,0.04,0.24,0.1c0.07,0.06,0.11,0.15,0.11,0.24v10.65
			c0,0.09-0.03,0.19-0.1,0.25c-0.07,0.07-0.16,0.1-0.26,0.1L62.21,11.54z"/>
		<path id="Trazado_16" class="st1" d="M65.76,0.54c-0.01-0.1,0.03-0.19,0.11-0.25c0.06-0.07,0.15-0.1,0.25-0.1h2.23
			c0.35,0,0.69,0.06,1.02,0.17c0.31,0.12,0.59,0.29,0.83,0.52c0.24,0.23,0.42,0.51,0.54,0.82c0.14,0.34,0.21,0.7,0.21,1.07v6.2
			c0,0.35-0.07,0.69-0.21,1.01c-0.13,0.3-0.31,0.58-0.54,0.82c-0.24,0.23-0.52,0.42-0.83,0.55c-0.32,0.13-0.67,0.2-1.02,0.2h-2.23
			c-0.2,0-0.35-0.16-0.35-0.36V0.54z M66.61,1.02v9.67h1.74c0.46,0,0.9-0.18,1.23-0.51c0.16-0.16,0.29-0.34,0.38-0.55
			c0.09-0.21,0.13-0.44,0.14-0.68v-6.2c0-0.46-0.18-0.9-0.52-1.22c-0.16-0.16-0.35-0.29-0.56-0.38c-0.21-0.09-0.44-0.13-0.67-0.13
			L66.61,1.02z"/>
		<path id="Trazado_17" class="st1" d="M78.81,11.21c0.03,0.22-0.05,0.32-0.27,0.32h-0.22c-0.2,0.02-0.37-0.13-0.39-0.32l-0.27-1.24
			h-3.24l-0.22,1.24c-0.01,0.19-0.18,0.34-0.38,0.32c-0.01,0-0.01,0-0.02,0h-0.21c-0.25,0-0.35-0.1-0.32-0.32l2.15-10.68
			c0.02-0.09,0.06-0.18,0.12-0.25c0.06-0.07,0.15-0.1,0.24-0.1h0.51c0.09-0.01,0.18,0.03,0.24,0.1c0.06,0.07,0.1,0.16,0.12,0.25
			L78.81,11.21z M76.07,2.05l-1.46,7.12h2.9L76.07,2.05z"/>
	</g>
	<g id="Grupo_3" transform="translate(210.193 22.323)">
		<path id="Trazado_18" class="st2" d="M5.12,0C7.14,0,8.77,1.64,8.77,3.66C8.76,5.68,7.12,7.31,5.1,7.31
			C3.08,7.34,1.41,5.73,1.38,3.71C1.34,1.69,2.95,0.03,4.98,0C5.02,0,5.06,0,5.1,0H5.12z M5.07,0.64C3.41,0.65,2.07,2,2.09,3.66
			C2.1,5.32,3.46,6.66,5.12,6.65C6.71,6.64,8,5.35,8,3.76c0-0.03,0-0.07,0-0.1c0.05-1.61-1.21-2.97-2.83-3.02c-0.02,0-0.05,0-0.07,0
			L5.07,0.64z M4.43,5.64H3.71V1.83C4.15,1.75,4.6,1.71,5.05,1.71c0.42-0.05,0.85,0.06,1.19,0.3C6.5,2.2,6.65,2.51,6.64,2.83
			C6.61,3.26,6.32,3.62,5.9,3.73v0.04c0.35,0.19,0.59,0.54,0.62,0.94c0.04,0.33,0.15,0.65,0.3,0.94H6.08
			C5.92,5.34,5.81,5.01,5.76,4.66c-0.1-0.43-0.35-0.61-0.88-0.61H4.42L4.43,5.64z M4.43,3.49h0.48c0.51,0,0.99-0.16,0.99-0.59
			c0-0.37-0.26-0.64-0.92-0.64c-0.19,0-0.37,0.01-0.55,0.04L4.43,3.49z"/>
	</g>
</g>
</svg>
